<svg width="120" height="120" viewBox="0 0 120 120" fill="none" xmlns="http://www.w3.org/2000/svg">
<path d="M68.8512 18.4492C69.9058 14.359 70.4834 9.95984 68.5248 5.93142C66.0389 0.840284 61.2178 -1.27278 57.2379 0.778498C52.4545 3.24992 50.0188 8.35341 51.3622 14.5567L59.7363 45.6225C59.9121 46.2774 60.6529 46.2898 60.8412 45.6472L68.8512 18.4492Z" fill="currentColor"/>
<path d="M51.9648 101.551C50.9102 105.641 50.3327 110.04 52.2913 114.069C54.7771 119.16 59.5982 121.273 63.5781 119.222C68.3616 116.75 70.7972 111.647 69.4539 105.443L61.0797 74.3776C60.904 73.7226 60.1632 73.7103 59.9749 74.3528L51.9648 101.551Z" fill="currentColor"/>
<path d="M101.255 67.3586C105.411 68.3966 109.881 68.965 113.974 67.0373C119.146 64.5906 121.293 59.8455 119.209 55.9283C116.698 51.2202 111.513 48.8229 105.21 50.1452L73.6472 58.3874C72.9818 58.5604 72.9692 59.2894 73.6221 59.4748L101.255 67.3586Z" fill="currentColor"/>
<path d="M18.7445 50.726C14.5888 49.688 10.1193 49.1196 6.02636 51.0473C0.853734 53.494 -1.29316 58.2391 0.790959 62.1563C3.30194 66.8644 8.48713 69.2617 14.7897 67.9395L46.3528 59.6973C47.0182 59.5243 47.0308 58.7952 46.3779 58.6098L18.7445 50.726Z" fill="currentColor"/>
<path d="M84.5574 92.975C86.3528 95.9407 88.6001 98.8199 92.1029 100.031C96.5348 101.563 100.552 100.031 101.657 96.5833C102.976 92.4313 101.381 88.0939 96.9617 85.2765L73.8732 72.0915C73.3835 71.8196 72.9567 72.2274 73.2203 72.7093L84.5574 92.9874V92.975Z" fill="currentColor"/>
<path d="M35.4426 25.1344C33.6472 22.1687 31.3999 19.2895 27.8971 18.0785C23.4652 16.5462 19.4476 18.0785 18.3428 21.5261C17.0245 25.6781 18.619 30.0154 23.0383 32.8329L46.1268 46.0179C46.6164 46.2898 47.0433 45.882 46.7797 45.4001L35.4426 25.122V25.1344Z" fill="currentColor"/>
<path d="M25.5367 83.2252C22.5235 84.9923 19.5982 87.2042 18.3679 90.6518C16.811 95.0139 18.3679 98.9682 21.8707 100.056C26.0891 101.353 30.4959 99.7837 33.3584 95.434L46.7545 72.7093C47.0308 72.2274 46.6164 71.8072 46.1268 72.0667L25.5242 83.2252H25.5367Z" fill="currentColor"/>
<path d="M94.4633 34.8841C97.4765 33.1171 100.402 30.9051 101.632 27.4575C103.189 23.0954 101.632 19.1412 98.1293 18.0537C93.9109 16.7562 89.5041 18.3256 86.6416 22.6753L73.2455 45.4C72.9692 45.882 73.3836 46.3021 73.8732 46.0426L94.4758 34.8841H94.4633Z" fill="currentColor"/>
<path d="M55.8067 57.7201C55.4551 57.7201 55.1036 57.6583 54.7646 57.5224L28.9517 47.303C28.3114 47.0435 27.9975 46.3268 28.2611 45.6966C28.5248 45.0664 29.253 44.7575 29.8933 45.017L55.7062 55.2363C55.7062 55.2363 55.8694 55.2981 55.9824 55.1745C56.108 55.0509 56.0578 54.9397 56.0326 54.9027L44.7206 28.7797C44.4444 28.1495 44.7458 27.4204 45.3861 27.1609C46.0264 26.8891 46.7545 27.1856 47.0308 27.8159L58.3427 53.9388C58.7822 54.9521 58.5562 56.126 57.7778 56.9169C57.2505 57.4482 56.5348 57.7324 55.8067 57.7324V57.7201Z" fill="currentColor"/>
<path d="M64.5323 57.7201C63.6786 57.7201 62.85 57.337 62.2975 56.608C61.6949 55.8047 61.6572 54.7173 62.0464 53.7782L72.354 28.5696C72.6177 27.9394 73.3459 27.6305 73.9862 27.89C74.6265 28.1495 74.9404 28.8662 74.6767 29.4964L64.2938 54.9027C64.2938 54.9027 64.231 55.0633 64.3565 55.1745C64.4821 55.2981 64.5951 55.2487 64.6328 55.224L91.1739 44.0902C91.8142 43.8183 92.5549 44.1149 92.8186 44.7451C93.0948 45.3753 92.7935 46.092 92.1532 46.3639L65.612 57.4977C65.2605 57.646 64.8964 57.7201 64.5198 57.7201H64.5323Z" fill="currentColor"/>
<path d="M73.2957 89.7622L62.0465 63.7998C61.6824 62.9596 61.6698 61.9586 62.1469 61.1801C62.8876 59.9939 64.3189 59.5737 65.5493 60.0556L91.3622 70.275C92.0025 70.5345 92.3164 71.2512 92.0527 71.8814C91.7891 72.5116 91.0609 72.8205 90.4206 72.561L64.6077 62.3417C64.6077 62.3417 64.4444 62.2799 64.3315 62.4035C64.2059 62.5271 64.2561 62.6383 64.2812 62.6753L75.5932 88.7983C75.8694 89.4285 75.5681 90.1576 74.9278 90.4171C74.2875 90.6889 73.5593 90.3924 73.2831 89.7622H73.2957Z" fill="currentColor"/>
<path d="M47.0935 89.688C46.4532 89.4285 46.1394 88.7118 46.403 88.0816L56.7859 62.6753C56.7859 62.6753 56.8487 62.5147 56.7232 62.4035C56.5976 62.2799 56.4846 62.3417 56.447 62.354L29.9058 73.4878C29.2655 73.7597 28.5248 73.4631 28.2611 72.8329C27.9849 72.2027 28.2863 71.486 28.9266 71.2141L55.4677 60.0803C56.6855 59.5613 58.1419 59.9691 58.8952 61.1307C59.3974 61.9092 59.4099 62.8978 59.0584 63.7504L48.7382 88.996C48.4746 89.6262 47.7464 89.9351 47.1061 89.6756L47.0935 89.688Z" fill="currentColor"/>
</svg>
